<svg xmlns="http://www.w3.org/2000/svg" viewBox="0 0 64 64" fill="none">
  <path d="M22 15h20c5 0 9 4 9 9v8c0 2.6-1.4 5-3.7 6.2l-3.4 1.8 3 9H38.6l-1.8-7h-9.6l-1.8 7H17l3-9-3.4-1.8A7 7 0 0 1 13 32v-8c0-5 4-9 9-9Z" fill="#d1d5db" stroke="#fff" stroke-width="3"/>
  <path d="M23 25h8M27 21v8" stroke="#111827" stroke-width="3.2" stroke-linecap="round"/>
  <circle cx="40.5" cy="25.5" r="2.8" fill="#60a5fa"/>
  <circle cx="46" cy="30.5" r="2.8" fill="#ffd75e"/>
  <circle cx="32" cy="34" r="4.2" fill="#ff5f8b"/>
</svg>
